<?xml version="1.0" encoding="utf-8"?>
<!-- Generator: Adobe Illustrator 16.0.0, SVG Export Plug-In . SVG Version: 6.00 Build 0)  -->
<!DOCTYPE svg PUBLIC "-//W3C//DTD SVG 1.1 Tiny//EN" "http://www.w3.org/Graphics/SVG/1.1/DTD/svg11-tiny.dtd">
<svg version="1.1" baseProfile="tiny" id="Layer_1" xmlns="http://www.w3.org/2000/svg" xmlns:xlink="http://www.w3.org/1999/xlink"
	 x="0px" y="0px" width="260px" height="260px" viewBox="0 0 260 260" xml:space="preserve">
<g>
	<path fill="#303130" d="M223.319,39.546H38.292c-18.032,0-32.661,9.472-32.661,22.581v134.566c0,13.113,14.629,23.76,32.661,23.76
		h185.027c18.033,0,31.05-10.646,31.05-23.76V62.127C254.369,49.018,241.353,39.546,223.319,39.546z M128.13,194.334H96.434v-18.643
		h-27.97v18.643H36.756v-39.902c0-61.351,38.233-88.77,91.374-88.77V194.334z M223.242,96.432h-28.916v97.902h-31.691V96.432
		h-28.901v-30.77h89.509V96.432z"/>
	<path fill="#303130" d="M96.434,102.774c-17.155,6.713-25.738,21.448-27.598,42.142h27.598V102.774z"/>
</g>
</svg>
